<svg xmlns="http://www.w3.org/2000/svg" viewBox="0 0 512 512" fill="none">
  <rect width="512" height="512" rx="96" fill="#2563eb"/>
  <path d="M256 120c-75.1 0-136 60.9-136 136s60.9 136 136 136 136-60.9 136-136-60.9-136-136-136zm0 240c-57.4 0-104-46.6-104-104s46.6-104 104-104 104 46.6 104 104-46.6 104-104 104z" fill="white"/>
  <path d="M352 296l48 48-24 24-48-48c-20.5 14.5-45.5 23-72.5 23-68.5 0-124-55.5-124-124s55.5-124 124-124 124 55.5 124 124c0 27-8.5 52-23 72.5zM256 171c-45.3 0-82 36.7-82 82s36.7 82 82 82 82-36.7 82-82-36.7-82-82-82z" fill="white"/>
  <circle cx="280" cy="232" r="24" fill="#2563eb"/>
</svg>
